<svg width="750" height="750" xmlns="http://www.w3.org/2000/svg">
 <metadata>AAAk9mp1bWIAAAAeanVtZGMycGEAEQAQgAAAqgA4m3EDYzJwYQAAAA6CanVtYgAAAEdqdW1kYzJtYQARABCAAACqADibcQN1cm46YzJwYTo1MmU4OWE5ZC1hYWQxLTQyMGQtOTJmOS1iNGMwNjU4MWZhMTAAAAADs2p1bWIAAAApanVtZGMyYXMAEQAQgAAAqgA4m3EDYzJwYS5hc3NlcnRpb25zAAAAAMlqdW1iAAAARGp1bWRjYm9yABEAEIAAAKoAOJtxE2MycGEuaW5ncmVkaWVudC52MwAAAAAYYzJzaMOvZQu49QVWOEirSKL/gdYAAAB9Y2JvcqRscmVsYXRpb25zaGlwaHBhcmVudE9maGRjOnRpdGxlZnNvdXJjZWlkYzpmb3JtYXRqaW1hZ2Uvd2VicGppbnN0YW5jZUlEeCx4bXA6aWlkOmU1MDE3NzA3LWQ2NzItNGE3NS1iZTcwLWIwMjdiNzI5MzY1OQAAAfVqdW1iAAAAQWp1bWRjYm9yABEAEIAAAKoAOJtxE2MycGEuYWN0aW9ucy52MgAAAAAYYzJzaNV7yevmdVlzLd8JBcMzluAAAAGsY2JvcqFnYWN0aW9uc4KiZmFjdGlvbmtjMnBhLm9wZW5lZGpwYXJhbWV0ZXJzoWtpbmdyZWRpZW50c4GiY3VybHgtc2VsZiNqdW1iZj1jMnBhLmFzc2VydGlvbnMvYzJwYS5pbmdyZWRpZW50LnYzZGhhc2hYIH2uH5v/lHePoNvccg1rYu0FCD4RUazH0w7+DSWL9ix9pGZhY3Rpb25rYzJwYS5lZGl0ZWRqcGFyYW1ldGVyc6FraW5ncmVkaWVudHOBomN1cmx4LXNlbGYjanVtYmY9YzJwYS5hc3NlcnRpb25zL2MycGEuaW5ncmVkaWVudC52M2RoYXNoWCB9rh+b/5R3j6Db3HINa2LtBQg+EVGsx9MO/g0li/YsfXFkaWdpdGFsU291cmNlVHlwZXhTaHR0cDovL2N2LmlwdGMub3JnL25ld3Njb2Rlcy9kaWdpdGFsc291cmNldHlwZS9jb21wb3NpdGVXaXRoVHJhaW5lZEFsZ29yaXRobWljTWVkaWFrZGVzY3JpcHRpb252Q3JlYXRlZCBieSBSZWNyYWZ0IEFJLgAAAMRqdW1iAAAAQGp1bWRjYm9yABEAEIAAAKoAOJtxE2MycGEuaGFzaC5kYXRhAAAAABhjMnNooloqVSJ/yi8r1EZbOgsS6AAAAHxjYm9ypWpleGNsdXNpb25zgaJlc3RhcnQY22ZsZW5ndGgZE4xkbmFtZW5qdW1iZiBtYW5pZmVzdGNhbGdmc2hhMjU2ZGhhc2hYIMOigZLD/kePnS8rdyjW8yMDEPLLD1JU9+VSWa8/+B0eY3BhZEkAAAAAAAAAAAAAAAKkanVtYgAAACdqdW1kYzJjbAARABCAAACqADibcQNjMnBhLmNsYWltLnYyAAAAAnVjYm9yp2ppbnN0YW5jZUlEeCx4bXA6aWlkOjY3MWUyNWYzLTU2ZmQtNGRhOS04NWI5LWJmNzMwMDZiYTU1M3RjbGFpbV9nZW5lcmF0b3JfaW5mb6NkbmFtZWpyZWNyYWZ0LmFpZ3ZlcnNpb254KDgxY2U4MmUyYzVjM2NiZmJlOGM2ZmJlMTc5ZDVmOGQ5MWM0MDljZTF3b3JnLmNvbnRlbnRhdXRoLmMycGFfcnNmMC45MC43aXNpZ25hdHVyZXhNc2VsZiNqdW1iZj0vYzJwYS91cm46YzJwYTo1MmU4OWE5ZC1hYWQxLTQyMGQtOTJmOS1iNGMwNjU4MWZhMTAvYzJwYS5zaWduYXR1cmVyY3JlYXRlZF9hc3NlcnRpb25zgqJjdXJseCpzZWxmI2p1bWJmPWMycGEuYXNzZXJ0aW9ucy9jMnBhLmFjdGlvbnMudjJkaGFzaFggqc4M0ZJjOtdG9YCckDU9nkSgoaNTMzcc7+RpjvkCaBWiY3VybHgpc2VsZiNqdW1iZj1jMnBhLmFzc2VydGlvbnMvYzJwYS5oYXNoLmRhdGFkaGFzaFggVLb/ohjFQcmrV8Xhz/5CMHRkbANXvxYuxGt4jCfaLQBzZ2F0aGVyZWRfYXNzZXJ0aW9uc4GiY3VybHgtc2VsZiNqdW1iZj1jMnBhLmFzc2VydGlvbnMvYzJwYS5pbmdyZWRpZW50LnYzZGhhc2hYIH2uH5v/lHePoNvccg1rYu0FCD4RUazH0w7+DSWL9ix9aGRjOnRpdGxleBpSZWNyYWZ0IEFJIEdlbmVyYXRlZCBJbWFnZWNhbGdmc2hhMjU2AAAH3Gp1bWIAAAAoanVtZGMyY3MAEQAQgAAAqgA4m3EDYzJwYS5zaWduYXR1cmUAAAAHrGNib3LShFkDsKIBJhghglkB5zCCAeMwggGJoAMCAQICCQC33lpjQ1FuejAKBggqhkjOPQQDAjBAMR8wHQYDVQQDDBZSZWNyYWZ0IFN0YWdpbmcgRGV2IENBMRAwDgYDVQQKDAdSZWNyYWZ0MQswCQYDVQQGEwJVUzAeFw0yNjA2MTIxOTQzNTBaFw0yNzA2MTIxOTQzNTBaMDcxCzAJBgNVBAYTAlVTMRMwEQYDVQQKEwpSZWNyYWZ0IEFJMRMwEQYDVQQDEwpyZWNyYWZ0LmFpMFkwEwYHKoZIzj0CAQYIKoZIzj0DAQcDQgAESmk1WwArIPw3hty3jsWHSA/1QOhBRu9xOjpJ2/iiIghScoEVM+Lnjds/7dqmG+giFL0vEb4DoogpX6KrGLcPNaN1MHMwDAYDVR0TAQH/BAIwADAOBgNVHQ8BAf8EBAMCBsAwEwYDVR0lBAwwCgYIKwYBBQUHAwQwHQYDVR0OBBYEFC8x6QXp/eki9cuCDx2vDJDLIV39MB8GA1UdIwQYMBaAFAILKjgayqqXSv/5v5MWaO2UeHm3MAoGCCqGSM49BAMCA0gAMEUCIFPISltGl775PEkIFRTZGsevWJvWnvBrE9kWU0MPgedQAiEAtA+AZBKEQ+DdK9mUZDctB2Wlt1iAsv0GRjfeYpReMsxZAb0wggG5MIIBX6ADAgECAgkAnPloO0+gE28wCgYIKoZIzj0EAwIwQDEfMB0GA1UEAwwWUmVjcmFmdCBTdGFnaW5nIERldiBDQTEQMA4GA1UECgwHUmVjcmFmdDELMAkGA1UEBhMCVVMwHhcNMjYwNjEyMTk0MDE2WhcNMjgwNjExMTk0MDE2WjBAMR8wHQYDVQQDDBZSZWNyYWZ0IFN0YWdpbmcgRGV2IENBMRAwDgYDVQQKDAdSZWNyYWZ0MQswCQYDVQQGEwJVUzBZMBMGByqGSM49AgEGCCqGSM49AwEHA0IABEPSEAZXFWymij2K0EnzoS/9NLO8VAwu0YpyLizvyNZPfcvcoeqFhfZD8Wj/rcdb9T3ji98q1arie99B9GRog8qjQjBAMA8GA1UdEwEB/wQFMAMBAf8wDgYDVR0PAQH/BAQDAgGGMB0GA1UdDgQWBBQCCyo4Gsqql0r/+b+TFmjtlHh5tzAKBggqhkjOPQQDAgNIADBFAiBUMDSJi5WA3kIY4BfmYqk24HLs0qpjicN0NpUP4bvNxQIhAPTvHC5v8X6FS6geI7XW7h84t1i/qdkTfg0RpMKWLMFboWNwYWRZA6QAAAAAAAAAAAAAAAAAAAAAAAAAAAAAAAAAAAAAAAAAAAAAAAAAAAAAAAAAAAAAAAAAAAAAAAAAAAAAAAAAAAAAAAAAAAAAAAAAAAAAAAAAAAAAAAAAAAAAAAAAAAAAAAAAAAAAAAAAAAAAAAAAAAAAAAAAAAAAAAAAAAAAAAAAAAAAAAAAAAAAAAAAAAAAAAAAAAAAAAAAAAAAAAAAAAAAAAAAAAAAAAAAAAAAAAAAAAAAAAAAAAAAAAAAAAAAAAAAAAAAAAAAAAAAAAAAAAAAAAAAAAAAAAAAAAAAAAAAAAAAAAAAAAAAAAAAAAAAAAAAAAAAAAAAAAAAAAAAAAAAAAAAAAAAAAAAAAAAAAAAAAAAAAAAAAAAAAAAAAAAAAAAAAAAAAAAAAAAAAAAAAAAAAAAAAAAAAAAAAAAAAAAAAAAAAAAAAAAAAAAAAAAAAAAAAAAAAAAAAAAAAAAAAAAAAAAAAAAAAAAAAAAAAAAAAAAAAAAAAAAAAAAAAAAAAAAAAAAAAAAAAAAAAAAAAAAAAAAAAAAAAAAAAAAAAAAAAAAAAAAAAAAAAAAAAAAAAAAAAAAAAAAAAAAAAAAAAAAAAAAAAAAAAAAAAAAAAAAAAAAAAAAAAAAAAAAAAAAAAAAAAAAAAAAAAAAAAAAAAAAAAAAAAAAAAAAAAAAAAAAAAAAAAAAAAAAAAAAAAAAAAAAAAAAAAAAAAAAAAAAAAAAAAAAAAAAAAAAAAAAAAAAAAAAAAAAAAAAAAAAAAAAAAAAAAAAAAAAAAAAAAAAAAAAAAAAAAAAAAAAAAAAAAAAAAAAAAAAAAAAAAAAAAAAAAAAAAAAAAAAAAAAAAAAAAAAAAAAAAAAAAAAAAAAAAAAAAAAAAAAAAAAAAAAAAAAAAAAAAAAAAAAAAAAAAAAAAAAAAAAAAAAAAAAAAAAAAAAAAAAAAAAAAAAAAAAAAAAAAAAAAAAAAAAAAAAAAAAAAAAAAAAAAAAAAAAAAAAAAAAAAAAAAAAAAAAAAAAAAAAAAAAAAAAAAAAAAAAAAAAAAAAAAAAAAAAAAAAAAAAAAAAAAAAAAAAAAAAAAAAAAAAAAAAAAAAAAAAAAAAAAAAAAAAAAAAAAAAAAAAAAAAAAAAAAAAAAAAAAAAAAAAAAAAAAAAAAAAAAAAAAAAAAAAAAAAAAAAAAAAAAAAAAAAAAAAAAAAAAAAAAAAAAAAAAAAAAAAAAAAAAAAAAAAAAAAAAAAAAAAAPZYQBeK6Ad8FIQJzX8PHP/Gq62klyiarQv4+VGaJXT16GQEksukIJmXbE06D3tNLSOYHSGzqG63MwtciAgwBKBRSkIAABZOanVtYgAAAEdqdW1kYzJtYQARABCAAACqADibcQN1cm46YzJwYTpkODkxZTAyMS1jMDJlLTRiYTktOGZiMC0xYzRhMTg2Njg5MDEAAAALf2p1bWIAAAApanVtZGMyYXMAEQAQgAAAqgA4m3EDYzJwYS5hc3NlcnRpb25zAAAACJVqdW1iAAAARGp1bWRjYm9yABEAEIAAAKoAOJtxE2MycGEuaW5ncmVkaWVudC52MwAAAAAYYzJzaFwE7dtNVeF7Lzp5efJPVPEAAAhJY2JvcqdscmVsYXRpb25zaGlwaHBhcmVudE9maGRjOnRpdGxlZnNvdXJjZWlkYzpmb3JtYXRtaW1hZ2Uvc3ZnK3htbHF2YWxpZGF0aW9uUmVzdWx0c6JuYWN0aXZlTWFuaWZlc3SjZ3N1Y2Nlc3OGo2Rjb2RleB1jbGFpbVNpZ25hdHVyZS5pbnNpZGVWYWxpZGl0eWN1cmx4TXNlbGYjanVtYmY9L2MycGEvdXJuOmMycGE6NTJlODlhOWQtYWFkMS00MjBkLTkyZjktYjRjMDY1ODFmYTEwL2MycGEuc2lnbmF0dXJla2V4cGxhbmF0aW9udWNsYWltIHNpZ25hdHVyZSB2YWxpZKNkY29kZXgYY2xhaW1TaWduYXR1cmUudmFsaWRhdGVkY3VybHhNc2VsZiNqdW1iZj0vYzJwYS91cm46YzJwYTo1MmU4OWE5ZC1hYWQxLTQyMGQtOTJmOS1iNGMwNjU4MWZhMTAvYzJwYS5zaWduYXR1cmVrZXhwbGFuYXRpb251Y2xhaW0gc2lnbmF0dXJlIHZhbGlko2Rjb2RleBlhc3NlcnRpb24uaGFzaGVkVVJJLm1hdGNoY3VybHhec2VsZiNqdW1iZj0vYzJwYS91cm46YzJwYTo1MmU4OWE5ZC1hYWQxLTQyMGQtOTJmOS1iNGMwNjU4MWZhMTAvYzJwYS5hc3NlcnRpb25zL2MycGEuYWN0aW9ucy52MmtleHBsYW5hdGlvbng+aGFzaGVkIHVyaSBtYXRjaGVkOiBzZWxmI2p1bWJmPWMycGEuYXNzZXJ0aW9ucy9jMnBhLmFjdGlvbnMudjKjZGNvZGV4GWFzc2VydGlvbi5oYXNoZWRVUkkubWF0Y2hjdXJseF1zZWxmI2p1bWJmPS9jMnBhL3VybjpjMnBhOjUyZTg5YTlkLWFhZDEtNDIwZC05MmY5LWI0YzA2NTgxZmExMC9jMnBhLmFzc2VydGlvbnMvYzJwYS5oYXNoLmRhdGFrZXhwbGFuYXRpb254PWhhc2hlZCB1cmkgbWF0Y2hlZDogc2VsZiNqdW1iZj1jMnBhLmFzc2VydGlvbnMvYzJwYS5oYXNoLmRhdGGjZGNvZGV4GWFzc2VydGlvbi5oYXNoZWRVUkkubWF0Y2hjdXJseGFzZWxmI2p1bWJmPS9jMnBhL3VybjpjMnBhOjUyZTg5YTlkLWFhZDEtNDIwZC05MmY5LWI0YzA2NTgxZmExMC9jMnBhLmFzc2VydGlvbnMvYzJwYS5pbmdyZWRpZW50LnYza2V4cGxhbmF0aW9ueEFoYXNoZWQgdXJpIG1hdGNoZWQ6IHNlbGYjanVtYmY9YzJwYS5hc3NlcnRpb25zL2MycGEuaW5ncmVkaWVudC52M6NkY29kZXgYYXNzZXJ0aW9uLmRhdGFIYXNoLm1hdGNoY3VybHhdc2VsZiNqdW1iZj0vYzJwYS91cm46YzJwYTo1MmU4OWE5ZC1hYWQxLTQyMGQtOTJmOS1iNGMwNjU4MWZhMTAvYzJwYS5hc3NlcnRpb25zL2MycGEuaGFzaC5kYXRha2V4cGxhbmF0aW9ub2RhdGEgaGFzaCB2YWxpZG1pbmZvcm1hdGlvbmFsgGdmYWlsdXJlgaNkY29kZXgbc2lnbmluZ0NyZWRlbnRpYWwudW50cnVzdGVkY3VybHhNc2VsZiNqdW1iZj0vYzJwYS91cm46YzJwYTo1MmU4OWE5ZC1hYWQxLTQyMGQtOTJmOS1iNGMwNjU4MWZhMTAvYzJwYS5zaWduYXR1cmVrZXhwbGFuYXRpb254HXNpZ25pbmcgY2VydGlmaWNhdGUgdW50cnVzdGVkcGluZ3JlZGllbnREZWx0YXOBonZpbmdyZWRpZW50QXNzZXJ0aW9uVVJJeGFzZWxmI2p1bWJmPS9jMnBhL3VybjpjMnBhOjUyZTg5YTlkLWFhZDEtNDIwZC05MmY5LWI0YzA2NTgxZmExMC9jMnBhLmFzc2VydGlvbnMvYzJwYS5pbmdyZWRpZW50LnYzcHZhbGlkYXRpb25EZWx0YXOjZ3N1Y2Nlc3OAbWluZm9ybWF0aW9uYWyBo2Rjb2RleBxpbmdyZWRpZW50LnVua25vd25Qcm92ZW5hbmNlY3VybHhhc2VsZiNqdW1iZj0vYzJwYS91cm46YzJwYTo1MmU4OWE5ZC1hYWQxLTQyMGQtOTJmOS1iNGMwNjU4MWZhMTAvYzJwYS5hc3NlcnRpb25zL2MycGEuaW5ncmVkaWVudC52M2tleHBsYW5hdGlvbngrc291cmNlOiBpbmdyZWRpZW50IGRvZXMgbm90IGhhdmUgcHJvdmVuYW5jZWdmYWlsdXJlgGppbnN0YW5jZUlEeCx4bXA6aWlkOjc3MTBlMzQ3LTY0Y2MtNDVjNi05MzZiLTdjYTUyZTc4NDEwNG5hY3RpdmVNYW5pZmVzdKNjdXJseD5zZWxmI2p1bWJmPS9jMnBhL3VybjpjMnBhOjUyZTg5YTlkLWFhZDEtNDIwZC05MmY5LWI0YzA2NTgxZmExMGNhbGdmc2hhMjU2ZGhhc2hYIGX/uCe0IEEzgygjgq+/emvd8yKsV65Du4TIVLEg/OpobmNsYWltU2lnbmF0dXJlo2N1cmx4TXNlbGYjanVtYmY9L2MycGEvdXJuOmMycGE6NTJlODlhOWQtYWFkMS00MjBkLTkyZjktYjRjMDY1ODFmYTEwL2MycGEuc2lnbmF0dXJlY2FsZ2ZzaGEyNTZkaGFzaFggIZQ4p/xe8WSlQWZc2LEmY7RWgdEEvi48Haycb40t4tgAAAH1anVtYgAAAEFqdW1kY2JvcgARABCAAACqADibcRNjMnBhLmFjdGlvbnMudjIAAAAAGGMyc2hwZzTUjjFZrIpvBfSll78RAAABrGNib3KhZ2FjdGlvbnOComZhY3Rpb25rYzJwYS5vcGVuZWRqcGFyYW1ldGVyc6FraW5ncmVkaWVudHOBomN1cmx4LXNlbGYjanVtYmY9YzJwYS5hc3NlcnRpb25zL2MycGEuaW5ncmVkaWVudC52M2RoYXNoWCC3QRCpYo9a+kUsFSD5kF0wdm8dEdyOEZyIyYQOf7Po0aRmYWN0aW9ua2MycGEuZWRpdGVkanBhcmFtZXRlcnOha2luZ3JlZGllbnRzgaJjdXJseC1zZWxmI2p1bWJmPWMycGEuYXNzZXJ0aW9ucy9jMnBhLmluZ3JlZGllbnQudjNkaGFzaFggt0EQqWKPWvpFLBUg+ZBdMHZvHRHcjhGciMmEDn+z6NFxZGlnaXRhbFNvdXJjZVR5cGV4U2h0dHA6Ly9jdi5pcHRjLm9yZy9uZXdzY29kZXMvZGlnaXRhbHNvdXJjZXR5cGUvY29tcG9zaXRlV2l0aFRyYWluZWRBbGdvcml0aG1pY01lZGlha2Rlc2NyaXB0aW9udkNyZWF0ZWQgYnkgUmVjcmFmdCBBSS4AAADEanVtYgAAAEBqdW1kY2JvcgARABCAAACqADibcRNjMnBhLmhhc2guZGF0YQAAAAAYYzJzaEBQlhqeuMHVu5wPv4/CxE0AAAB8Y2JvcqVqZXhjbHVzaW9uc4GiZXN0YXJ0GOxmbGVuZ3RoGTFIZG5hbWVuanVtYmYgbWFuaWZlc3RjYWxnZnNoYTI1NmRoYXNoWCBoPTQVMi3duMZ+z+kfJtQ+fN1ewSeMnP0D9bx6agnifGNwYWRJAAAAAAAAAAAAAAACpGp1bWIAAAAnanVtZGMyY2wAEQAQgAAAqgA4m3EDYzJwYS5jbGFpbS52MgAAAAJ1Y2JvcqdqaW5zdGFuY2VJRHgseG1wOmlpZDphNDBhOWM2OS05N2JjLTQzYjgtYTY5Ni01OWZiNTFkOGUyNTB0Y2xhaW1fZ2VuZXJhdG9yX2luZm+jZG5hbWVqcmVjcmFmdC5haWd2ZXJzaW9ueCg4MWNlODJlMmM1YzNjYmZiZThjNmZiZTE3OWQ1ZjhkOTFjNDA5Y2Uxd29yZy5jb250ZW50YXV0aC5jMnBhX3JzZjAuOTAuN2lzaWduYXR1cmV4TXNlbGYjanVtYmY9L2MycGEvdXJuOmMycGE6ZDg5MWUwMjEtYzAyZS00YmE5LThmYjAtMWM0YTE4NjY4OTAxL2MycGEuc2lnbmF0dXJlcmNyZWF0ZWRfYXNzZXJ0aW9uc4KiY3VybHgqc2VsZiNqdW1iZj1jMnBhLmFzc2VydGlvbnMvYzJwYS5hY3Rpb25zLnYyZGhhc2hYIBFWz7Dr59iRngTjunh26ooJdbUDg7LpSDBzDPe4ZzjLomN1cmx4KXNlbGYjanVtYmY9YzJwYS5hc3NlcnRpb25zL2MycGEuaGFzaC5kYXRhZGhhc2hYIGIW/IXYnNLwGvyyPN1S+jXdcPwMyWC+/GSMYTp2QYprc2dhdGhlcmVkX2Fzc2VydGlvbnOBomN1cmx4LXNlbGYjanVtYmY9YzJwYS5hc3NlcnRpb25zL2MycGEuaW5ncmVkaWVudC52M2RoYXNoWCC3QRCpYo9a+kUsFSD5kF0wdm8dEdyOEZyIyYQOf7Po0WhkYzp0aXRsZXgaUmVjcmFmdCBBSSBHZW5lcmF0ZWQgSW1hZ2VjYWxnZnNoYTI1NgAAB9xqdW1iAAAAKGp1bWRjMmNzABEAEIAAAKoAOJtxA2MycGEuc2lnbmF0dXJlAAAAB6xjYm9y0oRZA7CiASYYIYJZAecwggHjMIIBiaADAgECAgkAt95aY0NRbnowCgYIKoZIzj0EAwIwQDEfMB0GA1UEAwwWUmVjcmFmdCBTdGFnaW5nIERldiBDQTEQMA4GA1UECgwHUmVjcmFmdDELMAkGA1UEBhMCVVMwHhcNMjYwNjEyMTk0MzUwWhcNMjcwNjEyMTk0MzUwWjA3MQswCQYDVQQGEwJVUzETMBEGA1UEChMKUmVjcmFmdCBBSTETMBEGA1UEAxMKcmVjcmFmdC5haTBZMBMGByqGSM49AgEGCCqGSM49AwEHA0IABEppNVsAKyD8N4bct47Fh0gP9UDoQUbvcTo6Sdv4oiIIUnKBFTPi543bP+3aphvoIhS9LxG+A6KIKV+iqxi3DzWjdTBzMAwGA1UdEwEB/wQCMAAwDgYDVR0PAQH/BAQDAgbAMBMGA1UdJQQMMAoGCCsGAQUFBwMEMB0GA1UdDgQWBBQvMekF6f3pIvXLgg8drwyQyyFd/TAfBgNVHSMEGDAWgBQCCyo4Gsqql0r/+b+TFmjtlHh5tzAKBggqhkjOPQQDAgNIADBFAiBTyEpbRpe++TxJCBUU2RrHr1ib1p7waxPZFlNDD4HnUAIhALQPgGQShEPg3SvZlGQ3LQdlpbdYgLL9BkY33mKUXjLMWQG9MIIBuTCCAV+gAwIBAgIJAJz5aDtPoBNvMAoGCCqGSM49BAMCMEAxHzAdBgNVBAMMFlJlY3JhZnQgU3RhZ2luZyBEZXYgQ0ExEDAOBgNVBAoMB1JlY3JhZnQxCzAJBgNVBAYTAlVTMB4XDTI2MDYxMjE5NDAxNloXDTI4MDYxMTE5NDAxNlowQDEfMB0GA1UEAwwWUmVjcmFmdCBTdGFnaW5nIERldiBDQTEQMA4GA1UECgwHUmVjcmFmdDELMAkGA1UEBhMCVVMwWTATBgcqhkjOPQIBBggqhkjOPQMBBwNCAARD0hAGVxVspoo9itBJ86Ev/TSzvFQMLtGKci4s78jWT33L3KHqhYX2Q/Fo/63HW/U944vfKtWq4nvfQfRkaIPKo0IwQDAPBgNVHRMBAf8EBTADAQH/MA4GA1UdDwEB/wQEAwIBhjAdBgNVHQ4EFgQUAgsqOBrKqpdK//m/kxZo7ZR4ebcwCgYIKoZIzj0EAwIDSAAwRQIgVDA0iYuVgN5CGOAX5mKpNuBy7NKqY4nDdDaVD+G7zcUCIQD07xwub/F+hUuoHiO11u4fOLdYv6nZE34NEaTClizBW6FjcGFkWQOkAAAAAAAAAAAAAAAAAAAAAAAAAAAAAAAAAAAAAAAAAAAAAAAAAAAAAAAAAAAAAAAAAAAAAAAAAAAAAAAAAAAAAAAAAAAAAAAAAAAAAAAAAAAAAAAAAAAAAAAAAAAAAAAAAAAAAAAAAAAAAAAAAAAAAAAAAAAAAAAAAAAAAAAAAAAAAAAAAAAAAAAAAAAAAAAAAAAAAAAAAAAAAAAAAAAAAAAAAAAAAAAAAAAAAAAAAAAAAAAAAAAAAAAAAAAAAAAAAAAAAAAAAAAAAAAAAAAAAAAAAAAAAAAAAAAAAAAAAAAAAAAAAAAAAAAAAAAAAAAAAAAAAAAAAAAAAAAAAAAAAAAAAAAAAAAAAAAAAAAAAAAAAAAAAAAAAAAAAAAAAAAAAAAAAAAAAAAAAAAAAAAAAAAAAAAAAAAAAAAAAAAAAAAAAAAAAAAAAAAAAAAAAAAAAAAAAAAAAAAAAAAAAAAAAAAAAAAAAAAAAAAAAAAAAAAAAAAAAAAAAAAAAAAAAAAAAAAAAAAAAAAAAAAAAAAAAAAAAAAAAAAAAAAAAAAAAAAAAAAAAAAAAAAAAAAAAAAAAAAAAAAAAAAAAAAAAAAAAAAAAAAAAAAAAAAAAAAAAAAAAAAAAAAAAAAAAAAAAAAAAAAAAAAAAAAAAAAAAAAAAAAAAAAAAAAAAAAAAAAAAAAAAAAAAAAAAAAAAAAAAAAAAAAAAAAAAAAAAAAAAAAAAAAAAAAAAAAAAAAAAAAAAAAAAAAAAAAAAAAAAAAAAAAAAAAAAAAAAAAAAAAAAAAAAAAAAAAAAAAAAAAAAAAAAAAAAAAAAAAAAAAAAAAAAAAAAAAAAAAAAAAAAAAAAAAAAAAAAAAAAAAAAAAAAAAAAAAAAAAAAAAAAAAAAAAAAAAAAAAAAAAAAAAAAAAAAAAAAAAAAAAAAAAAAAAAAAAAAAAAAAAAAAAAAAAAAAAAAAAAAAAAAAAAAAAAAAAAAAAAAAAAAAAAAAAAAAAAAAAAAAAAAAAAAAAAAAAAAAAAAAAAAAAAAAAAAAAAAAAAAAAAAAAAAAAAAAAAAAAAAAAAAAAAAAAAAAAAAAAAAAAAAAAAAAAAAAAAAAAAAAAAAAAAAAAAAAAAAAAAAAAAAAAAAAAAAAAAAAAAAAAAAAAAAAAAAAAAAAAAAAAAAAAAAAAAAAAAAAAAAAAAAAAAAAAAAAAAAAAAAAAAAAAAAAAAAAAAAAAAAAAAAAAAAAAAAAAAAAAAAAD2WECMBt4J34pAISYkeAPBKDpjdNiXC0o7jNAKOKYrlzHQeyFVtznxlJO79rrpXJOPocxKMSliXXSNKbNDU8OSljeC</metadata>

 <g>
  <title>Layer 1</title>
  <path stroke="null" fill="#19557C" d="m477.00897,321.36017c-11.11798,-38.78003 7.646,-77.5811 41.31897,-98.0421c24.05804,-14.62991 52.97705,-19.00693 80.28705,-12.15192c42.73096,10.48703 77.69897,45.13191 92.409,86.10197c8.06598,22.46399 11.47601,51.32208 5.60797,74.61798c-1.427,-6.21088 -2.46997,-12.3609 -4.401,-18.50696c-9.211,-29.32086 -25.21698,-61.83795 -47.24896,-83.55701c-19.88202,-19.59804 -48.02405,-36.5919 -76.56805,-36.00398c-25.14899,0.51892 -44.97296,10.62991 -62.26697,28.12907c27.73798,-14.32109 62.11102,-11.79713 80.64001,16.00888c13.06799,19.60901 12.09698,43.72308 0.427,63.73608c-10.36499,17.77393 -22.53705,33.88397 -34.17303,50.91895c-7.27301,10.746 -14.61096,21.44809 -22.01495,32.10492c-14.82501,21.36917 -27.36603,40.755 -57.26605,34.81506c-24.54797,-4.87686 -33.78595,-31.72101 -44.40698,-51.38089c-8.53302,-15.79602 -15.69702,-31.27811 -25.35297,-46.57211c2.68597,-2.33688 5.62299,-4.36798 8.758,-6.05396c13.32898,-7.05902 24.52899,-5.25006 38.23596,-1.01904c3.07599,2.16602 11.88501,8.32599 15.08398,9.53705c2.74506,2.06897 5.005,3.68695 8.04303,5.33698c12.10797,6.59811 26.36603,8.0329 39.54602,3.98102c21.57599,-6.63605 38.78497,-26.21411 49.78796,-45.17096c17.97302,-30.96509 -15.89697,-58.7121 -45.89001,-47.79706c-22.37396,8.14105 -30.37299,20.67096 -40.55597,40.96802l0,0zm33.53802,86.77594c4.54199,-6.85803 10.93195,-17.14789 15.69397,-23.51398c-20.20599,8.29205 -36.28802,10.90393 -57.66998,2.79492c-11.784,-4.46878 -18.42499,-11.78589 -27.78204,-16.16699l0.30902,0.51306c6.43103,10.84607 11.54803,22.96899 17.34802,34.125c4.836,9.30215 9.38696,23.35699 20.74097,26.14703c14.97699,3.67993 24.58905,-13.75104 31.36005,-23.89905z" id="svg_1"/>
  <path stroke="null" fill="#19557C" d="m578.112,251c4.95801,0.80301 9.33398,1.48801 14.164,2.996c16.33398,5.228 29.89899,16.772 37.67297,32.06c9.28802,18.05701 9.42798,40.01501 3.28998,59.095c-4.86499,15.12802 -14.75696,28.12701 -23.70599,41.099l-25.65497,36.90503c-10.60504,15.21899 -25.56,38.854 -37.66998,52.06696c-6.74805,7.49603 -14.80603,13.70001 -23.77905,18.30701c-35.05499,17.896 -80.07996,7.17102 -102.5,-25.29498c-5.00995,-7.255 -9.04095,-14.78192 -13.13696,-22.56897c-5.03699,-9.58704 -9.94403,-19.24103 -14.72101,-28.95898c-3.52002,-6.86902 -7.21198,-13.64899 -11.07098,-20.33301c3.95599,-7.38605 11.48596,-17.27002 17.29895,-23.23102c9.64502,14.60199 19.20905,34.034 27.117,50.22894c12.94,28.08905 27.97504,52.39105 62.70703,51.73004c29.66199,-0.56403 43.20697,-22.50397 58.19098,-44.237l22.659,-32.953l18.62103,-27.05496c14.01196,-20.138 25.21899,-35.90802 24.19299,-61.97205c-0.78302,-18.72598 -8.93103,-36.383 -22.67102,-49.12994c-3.26398,-3.07901 -7.63501,-5.52704 -10.33002,-8.09906l-0.67395,-0.655z" id="svg_2"/>
  <path fill="#F26F28" d="m61.12199,480.13782c31.90399,-0.78381 64.196,0.45313 96.14,-0.13501c18.56201,-0.34204 37.27499,0.77588 55.811,-0.58813c34.276,-3.07965 67.75598,-20.30383 91.069,-45.51483c13.94,-15.08813 25.215,-32.73901 36.789,-49.67212c18.03101,-26.38095 39.61002,-62.23993 75.202,-64.19196c21.77496,-1.19498 39.26105,27.80801 49.948,43.78101c-3.19904,-1.211 -12.008,-7.371 -15.08405,-9.53699c-29.19196,-21.49802 -54.6759,-6.44 -73.00293,19.92004c-14.03198,20.18201 -27.32498,40.87292 -41.59903,60.87793c-26.03796,35.34094 -67.039,61.26294 -110.56601,67.99622c-22.177,3.43066 -48.02795,1.96887 -70.76099,2.13281c-36.79999,0.26501 -74.27296,-0.63306 -111.06799,-0.00806c5.222,-7.724 11.65601,-17.72015 17.12201,-25.06091l-0.00002,0z" id="svg_3"/>
  <path stroke="null" fill="#F26F28" d="m387.30701,308.20834c8.16302,-1.01703 16.38403,1.883 23.966,4.52094c-31.96698,6.52203 -48.461,25.78198 -66.77203,51.03406c-16.67395,22.99396 -30.75494,49.14996 -50.879,69.28796c-21.97696,22.172 -51.10599,35.83099 -82.20596,38.54999c-16.13501,1.47214 -33.95502,0.76297 -50.19598,0.67593l-70.55803,-0.10693c-7.95399,0.07312 -15.662,0.33313 -23.662,0.26794c2.558,-5.53793 8.92601,-14.85696 12.394,-19.98795c10.58502,-0.45099 23.703,0.07404 34.57701,0.14703l53.52899,0.00195c15.14102,0.01703 28.82898,0.41406 43.77905,-1.50098c64.44196,-8.25098 84.44196,-59.39301 118.75098,-104.995c15.53296,-20.646 30.87198,-34.37402 57.27698,-37.89496z" id="svg_4"/>
  <path fill="#F26F28" d="m366.42999,305l0.617,0.10901c-0.94299,1.30899 -9.854,5.66998 -12.45502,7.48599c-8.797,6.06702 -16.78503,13.23102 -23.77002,21.319c-21.75995,24.745 -35.10297,54.19104 -58.39099,78.54602c-35.80795,37.448 -74.47696,32.39294 -121.74194,32.31897l-63.90405,0.11401l-0.78497,-0.47296c1.02103,-3.04608 13.70001,-20.33606 16.27499,-23.57202c30.97897,-0.40503 62.30099,0.65796 93.21103,-0.63202c95.36597,-3.979 69.52899,-109.50601 170.94397,-115.216z" id="svg_5"/>
 </g>
</svg>